<?xml version="1.0" encoding="utf-8"?>
<!-- Generator: Adobe Illustrator 23.0.6, SVG Export Plug-In . SVG Version: 6.00 Build 0)  -->
<svg version="1.1" id="Layer_1" xmlns="http://www.w3.org/2000/svg" xmlns:xlink="http://www.w3.org/1999/xlink" x="0px" y="0px"
	 viewBox="0 0 453.5 197" style="enable-background:new 0 0 453.5 197;" xml:space="preserve">
<style type="text/css">
	.st0{fill:url(#SVGID_1_);}
</style>
<linearGradient id="SVGID_1_" gradientUnits="userSpaceOnUse" x1="0" y1="892.5" x2="453.5" y2="892.5" gradientTransform="matrix(1 0 0 1 0 -794)">
	<stop  offset="0" style="stop-color:#FF173E"/>
	<stop  offset="3.350055e-02" style="stop-color:#FE1C3D"/>
	<stop  offset="7.368893e-02" style="stop-color:#FC2B38"/>
	<stop  offset="0.1173" style="stop-color:#F84332"/>
	<stop  offset="0.1631" style="stop-color:#F36428"/>
	<stop  offset="0.1802" style="stop-color:#F17324"/>
	<stop  offset="0.3274" style="stop-color:#FCC651"/>
	<stop  offset="0.4949" style="stop-color:#52BF43"/>
	<stop  offset="0.6421" style="stop-color:#74A1E2"/>
	<stop  offset="0.8249" style="stop-color:#665891"/>
	<stop  offset="1" style="stop-color:#ED3A79"/>
</linearGradient>
<path class="st0" d="M377.9,90l-0.3,14.1c0,6-8.5,10.9-18.9,10.9c-8.2,0-15.2-3-17.8-7.2c-0.3-0.4-0.5-0.8-0.6-1.3h-0.5v51.2
	c0,6-8.5,10.9-18.9,10.9c-7.7,0-14.3-2.6-17.3-6.5l-1.3-4.2l-0.3,14.2c0,6-8.5,10.9-18.9,10.9c-7.7,0-14.3-2.6-17.3-6.5l-1.3-4.3
	l-0.3,9.9c0,6-8.5,10.9-18.9,10.9s-18.9-4.9-18.9-10.9l0.3-1.2l-0.3-51.9c0,6-8.5,10.9-18.9,10.9c-8.4,0-15.4-3.2-17.9-7.5l-0.7-3.3
	l-0.3,43c0,6-8.5,10.9-18.9,10.9s-18.9-4.9-18.9-10.9l0.3-2.5l-0.3-21.9c0,6-8.5,10.9-18.9,10.9c-7.3,0-13.7-2.4-16.8-5.9
	c-1.3-1.5-2.1-3.2-2.1-5l0.2,4.5l-0.2,33.7c0,6-8.5,10.9-18.9,10.9s-18.9-4.9-18.9-10.9c0,0,0.3-2,0.3-2.5l-0.3-54.4
	c0,6-8.5,10.9-18.9,10.9c-9.2,0-16.9-3.9-18.6-8.9l-0.1-1.9v-19.6c0,6-8.5,10.9-18.9,10.9S0,115.7,0,109.6v-1.4V0h453.5l-0.3,119.1
	c0,6-8.5,10.9-18.9,10.9s-18.9-4.9-18.9-10.9V89.7c0,6-8.5,10.9-18.9,10.9s-18.9-4.9-18.9-10.9"/>
</svg>
